<svg width="24px" height="20px" viewBox="0 0 24 20" version="1.1" xmlns="http://www.w3.org/2000/svg" xmlns:xlink="http://www.w3.org/1999/xlink" class="icon__svg">
    <g stroke="none" stroke-width="1" fill="none" fill-rule="evenodd">
        <g transform="translate(-38.000000, 0.000000)" fill-rule="nonzero">
            <path d="M62,2.36631471 C61.1166652,2.76786846 60.1688598,3.04019762 59.173015,3.16177817 C60.1898402,2.53709876 60.9681944,1.54626961 61.337097,0.369247605 C60.3832915,0.947740883 59.3304662,1.36780127 58.2086605,1.59551335 C57.3103453,0.612368467 56.0325785,0 54.6153213,0 C51.8963364,0 49.6917446,2.26171198 49.6917446,5.04961589 C49.6917446,5.44501417 49.7352349,5.83119937 49.819235,6.20048721 C45.7280126,5.98967249 42.1002028,3.97876565 39.6721596,0.923119012 C39.2477275,1.66780992 39.0062762,2.53552972 39.0062762,3.46178682 C39.0062762,5.21424448 39.8761207,6.76051408 41.1958876,7.66516669 C40.3890235,7.6374872 39.6301595,7.40977512 38.9658055,7.0312742 L38.9658055,7.09435769 C38.9658055,9.54069348 40.6634945,11.5823777 42.914557,12.0470551 C42.502125,12.1609112 42.0672223,12.2239947 41.6173,12.2239947 C41.2993779,12.2239947 40.9919265,12.1916885 40.690475,12.1301338 C41.3173388,14.1379831 43.135028,15.5980761 45.2886394,15.6381068 C43.6044405,16.9920683 41.4808292,17.7967448 39.1742764,17.7967448 C38.776864,17.7967448 38.3854124,17.772123 38,17.7275059 C40.1791016,19.1630173 42.7661254,20 45.5466006,20 C54.6033997,20 59.553996,12.3040157 59.553996,5.62967821 L59.5374862,4.9757905 C60.5047819,4.26799217 61.3416068,3.37870812 62,2.36631471 Z" fill="#fff"></path>
        </g>
    </g>
</svg>
