<svg width="24px" height="20px" viewBox="0 0 24 20" version="1.1" xmlns="http://www.w3.org/2000/svg" xmlns:xlink="http://www.w3.org/1999/xlink" class="icon__svg">
    <g stroke="none" stroke-width="1" fill="none" fill-rule="evenodd">
        <g transform="translate(-72.000000, 0.000000)" fill-rule="nonzero">
            <g transform="translate(72.000000, 0.000000)">
                <path d="M2.3035264,5.92039645 C2.60712317,6.13860861 3.52227604,6.78669921 5.04903191,7.86433378 C6.57583469,8.94196834 7.74547032,9.77171925 8.55798572,10.3536343 C8.64725405,10.4174208 8.83690821,10.556079 9.12704202,10.7697998 C9.41722274,10.983664 9.65833636,11.1564849 9.85019526,11.2883105 C10.0421949,11.4200883 10.2743019,11.5679202 10.5467509,11.7315674 C10.8191061,11.8950712 11.0758406,12.0180574 11.3169073,12.0994749 C11.5580209,12.1815613 11.7812152,12.2222222 11.986537,12.2222222 L12,12.2222222 L12.0135099,12.2222222 C12.2188317,12.2222222 12.4421198,12.1815135 12.6832335,12.0994749 C12.9242064,12.0180574 13.1811753,11.8949279 13.453296,11.7315674 C13.7255573,11.5677291 13.9576644,11.4200405 14.149664,11.2883105 C14.3416636,11.1564849 14.5825896,10.983664 14.8728642,10.7697998 C15.1629511,10.5558878 15.3528398,10.4174208 15.4421081,10.3536343 C16.2633955,9.77171925 18.352875,8.29382997 21.7098896,5.92010977 C22.361647,5.45649852 22.9061697,4.89708797 23.3435986,4.24226037 C23.7813559,3.58771945 24,2.90107023 24,2.18269497 C24,1.58238457 23.7878294,1.06850855 23.3636758,0.641114686 C22.9395691,0.213625262 22.4372647,0 21.8570909,0 L2.14276835,0 C1.45531306,0 0.926270362,0.236416416 0.555734071,0.709249247 C0.18524469,1.18217764 0,1.77331424 0,2.48261127 C0,3.05554361 0.245616915,3.67639949 0.7366162,4.34479667 C1.22756858,5.01324163 1.75004398,5.53848934 2.3035264,5.92039645 Z" class="icon__shape" fill="#fff"></path>
                <path d="M22.6605085,7.88255278 C19.7322503,9.95085153 17.5087554,11.558261 15.9911029,12.7044385 C15.4821853,13.0956192 15.0693376,13.4009859 14.7522785,13.6198043 C14.4352194,13.8387695 14.0135528,14.0623853 13.486669,14.2905536 C12.9599728,14.5190646 12.4691152,14.6329774 12.013674,14.6329774 L12.0000235,14.6329774 L11.9865605,14.6329774 C11.5312132,14.6329774 11.0400741,14.5190646 10.5133779,14.2905536 C9.9866817,14.0623853 9.56473368,13.8387695 9.24776839,13.6198043 C8.93089692,13.4009859 8.51790855,13.0956192 8.00903783,12.7044385 C6.80361279,11.7820726 4.58490267,10.1745652 1.35281367,7.88255278 C0.843755314,7.52872297 0.392864333,7.1231502 0,6.66666667 L0,17.7634999 C0,18.3788348 0.209730917,18.9050269 0.629427298,19.3429574 C1.04902986,19.7810348 1.55358494,20 2.14290489,20 L21.8572358,20 C22.4464151,20 22.9509232,19.7810348 23.3705727,19.3429574 C23.7903629,18.9048801 24,18.3788838 24,17.7634999 L24,6.66666667 C23.6160015,7.11370234 23.1697076,7.51927511 22.6605085,7.88255278 Z" class="icon__shape" fill="#fff"></path>
            </g>
        </g>
    </g>
</svg>
